<?xml version="1.0" encoding="UTF-8" standalone="no"?><!DOCTYPE svg PUBLIC "-//W3C//DTD SVG 1.1//EN" "http://www.w3.org/Graphics/SVG/1.1/DTD/svg11.dtd"><!-- Generated by graphviz version 2.40.1 (20161225.0304)
 --><!-- Title: plan Pages: 1 --><svg xmlns="http://www.w3.org/2000/svg" xmlns:xlink="http://www.w3.org/1999/xlink" width="312pt" height="222pt" viewBox="0.00 0.00 312.03 221.60">
<g id="graph0" class="graph" transform="scale(1 1) rotate(0) translate(4 217.6)">
<title>plan</title>
<polygon fill="#ffffff" stroke="transparent" points="-4,4 -4,-217.6 308.0321,-217.6 308.0321,4 -4,4"/>
<!-- Step0 -->
<g id="node1" class="node">
<title>Step0</title>
<ellipse fill="none" stroke="#000000" cx="207" cy="-195.6" rx="33.0643" ry="18"/>
<text text-anchor="middle" x="207" y="-191.4" font-family="Times,serif" font-size="14.00" fill="#000000">Step0</text>
</g>
<!-- Z -->
<g id="node2" class="node">
<title>Z</title>
<ellipse fill="none" stroke="#000000" cx="27" cy="-18" rx="27" ry="18"/>
<text text-anchor="middle" x="27" y="-13.8" font-family="Times,serif" font-size="14.00" fill="#000000">Z</text>
</g>
<!-- Step0&#45;&gt;Z -->
<g id="edge1" class="edge">
<title>Step0-&gt;Z</title>
<path fill="none" stroke="#000000" d="M176.4733,-188.625C127.8587,-176.8299 36.4227,-151.5978 17.8394,-124.8 1.6733,-101.4879 8.0084,-68.0691 15.7793,-44.8465"/>
<polygon fill="#000000" stroke="#000000" points="19.1324,-45.8666 19.2553,-35.2725 12.5527,-43.4777 19.1324,-45.8666"/>
<text text-anchor="middle" x="81.5803" y="-102.6" font-family="Times,serif" font-size="14.00" fill="#000000">-1.0010000000000012</text>
</g>
<!-- Step1 -->
<g id="node3" class="node">
<title>Step1</title>
<ellipse fill="none" stroke="#000000" cx="187" cy="-106.8" rx="33.0643" ry="18"/>
<text text-anchor="middle" x="187" y="-102.6" font-family="Times,serif" font-size="14.00" fill="#000000">Step1</text>
</g>
<!-- Step0&#45;&gt;Step1 -->
<g id="edge2" class="edge">
<title>Step0-&gt;Step1</title>
<path fill="none" stroke="#000000" d="M196.7864,-178.2007C193.904,-172.4645 191.1155,-165.9295 189.5,-159.6 187.5117,-151.8099 186.5915,-143.1679 186.2412,-135.1695"/>
<polygon fill="#000000" stroke="#000000" points="189.7405,-135.0889 186.0671,-125.1512 182.7415,-135.2106 189.7405,-135.0889"/>
<text text-anchor="middle" x="198.75" y="-147" font-family="Times,serif" font-size="14.00" fill="#000000">3.0</text>
</g>
<!-- Step3 -->
<g id="node4" class="node">
<title>Step3</title>
<ellipse fill="none" stroke="#000000" cx="271" cy="-106.8" rx="33.0643" ry="18"/>
<text text-anchor="middle" x="271" y="-102.6" font-family="Times,serif" font-size="14.00" fill="#000000">Step3</text>
</g>
<!-- Step0&#45;&gt;Step3 -->
<g id="edge3" class="edge">
<title>Step0-&gt;Step3</title>
<path fill="none" stroke="#000000" d="M212.8788,-177.4702C216.8604,-166.7797 222.8001,-153.3285 230.5,-142.8 234.2902,-137.6175 238.9381,-132.6395 243.7169,-128.1254"/>
<polygon fill="#000000" stroke="#000000" points="246.0784,-130.7092 251.2298,-121.451 241.4293,-125.476 246.0784,-130.7092"/>
<text text-anchor="middle" x="238.75" y="-147" font-family="Times,serif" font-size="14.00" fill="#000000">8.0</text>
</g>
<!-- Step1&#45;&gt;Z -->
<g id="edge4" class="edge">
<title>Step1-&gt;Z</title>
<path fill="none" stroke="#000000" d="M160.3815,-95.8665C153.7831,-93.3619 146.686,-90.8393 140,-88.8 105.9034,-78.4002 91.12,-91.1318 61.8394,-70.8 52.3372,-64.2019 44.7562,-54.0942 39.1241,-44.4823"/>
<polygon fill="#000000" stroke="#000000" points="42.1399,-42.7003 34.3224,-35.5493 35.9742,-46.0146 42.1399,-42.7003"/>
<text text-anchor="middle" x="122.0803" y="-58.2" font-family="Times,serif" font-size="14.00" fill="#000000">-4.001000000000001</text>
</g>
<!-- Step2 -->
<g id="node5" class="node">
<title>Step2</title>
<ellipse fill="none" stroke="#000000" cx="206" cy="-18" rx="33.0643" ry="18"/>
<text text-anchor="middle" x="206" y="-13.8" font-family="Times,serif" font-size="14.00" fill="#000000">Step2</text>
</g>
<!-- Step1&#45;&gt;Step2 -->
<g id="edge5" class="edge">
<title>Step1-&gt;Step2</title>
<path fill="none" stroke="#000000" d="M185.1137,-88.4565C184.5667,-78.1796 184.731,-65.2137 187.5,-54 188.2917,-50.7936 189.4163,-47.5512 190.7249,-44.3939"/>
<polygon fill="#000000" stroke="#000000" points="193.9162,-45.8329 195.0534,-35.2992 187.5955,-42.8245 193.9162,-45.8329"/>
<text text-anchor="middle" x="196.75" y="-58.2" font-family="Times,serif" font-size="14.00" fill="#000000">5.0</text>
</g>
<!-- Step3&#45;&gt;Step0 -->
<g id="edge7" class="edge">
<title>Step3-&gt;Step0</title>
<path fill="none" stroke="#000000" d="M265.3388,-124.9513C261.4747,-135.6495 255.6634,-149.1012 248,-159.6 244.1884,-164.8219 239.495,-169.8182 234.6609,-174.3381"/>
<polygon fill="#000000" stroke="#000000" points="232.2629,-171.7858 227.0553,-181.0125 236.8801,-177.0472 232.2629,-171.7858"/>
<text text-anchor="middle" x="268.0803" y="-147" font-family="Times,serif" font-size="14.00" fill="#000000">-8.0</text>
</g>
<!-- Step2&#45;&gt;Step1 -->
<g id="edge6" class="edge">
<title>Step2-&gt;Step1</title>
<path fill="none" stroke="#000000" d="M207.6238,-36.3407C208.0458,-46.6166 207.7605,-59.5826 205,-70.8 204.2152,-73.9891 203.1119,-77.2206 201.8334,-80.3715"/>
<polygon fill="#000000" stroke="#000000" points="198.6508,-78.915 197.616,-89.4592 205.0004,-81.8618 198.6508,-78.915"/>
<text text-anchor="middle" x="219.0803" y="-58.2" font-family="Times,serif" font-size="14.00" fill="#000000">-5.0</text>
</g>
</g>
</svg>