<?xml version="1.0" encoding="UTF-8" standalone="no"?><!DOCTYPE svg PUBLIC "-//W3C//DTD SVG 1.1//EN" "http://www.w3.org/Graphics/SVG/1.1/DTD/svg11.dtd"><!-- Generated by graphviz version 2.40.1 (20161225.0304)
 --><!-- Title: plan Pages: 1 --><svg xmlns="http://www.w3.org/2000/svg" xmlns:xlink="http://www.w3.org/1999/xlink" width="277pt" height="222pt" viewBox="0.00 0.00 277.03 221.60">
<g id="graph0" class="graph" transform="scale(1 1) rotate(0) translate(4 217.6)">
<title>plan</title>
<polygon fill="#ffffff" stroke="transparent" points="-4,4 -4,-217.6 273.0321,-217.6 273.0321,4 -4,4"/>
<!-- Step0 -->
<g id="node1" class="node">
<title>Step0</title>
<ellipse fill="none" stroke="#000000" cx="172" cy="-195.6" rx="33.0643" ry="18"/>
<text text-anchor="middle" x="172" y="-191.4" font-family="Times,serif" font-size="14.00" fill="#000000">Step0</text>
</g>
<!-- Z -->
<g id="node2" class="node">
<title>Z</title>
<ellipse fill="none" stroke="#000000" cx="27" cy="-18" rx="27" ry="18"/>
<text text-anchor="middle" x="27" y="-13.8" font-family="Times,serif" font-size="14.00" fill="#000000">Z</text>
</g>
<!-- Step0&#45;&gt;Z -->
<g id="edge1" class="edge">
<title>Step0-&gt;Z</title>
<path fill="none" stroke="#000000" d="M146.7771,-183.9424C111.0993,-165.7552 47.9069,-126.81 27,-70.8 24.147,-63.1568 23.2777,-54.4463 23.3577,-46.3345"/>
<polygon fill="#000000" stroke="#000000" points="26.863,-46.3342 23.9226,-36.1556 19.8738,-45.9463 26.863,-46.3342"/>
<text text-anchor="middle" x="80.0803" y="-102.6" font-family="Times,serif" font-size="14.00" fill="#000000">-0.001</text>
</g>
<!-- Step1 -->
<g id="node3" class="node">
<title>Step1</title>
<ellipse fill="none" stroke="#000000" cx="152" cy="-106.8" rx="33.0643" ry="18"/>
<text text-anchor="middle" x="152" y="-102.6" font-family="Times,serif" font-size="14.00" fill="#000000">Step1</text>
</g>
<!-- Step0&#45;&gt;Step1 -->
<g id="edge2" class="edge">
<title>Step0-&gt;Step1</title>
<path fill="none" stroke="#000000" d="M161.7864,-178.2007C158.904,-172.4645 156.1155,-165.9295 154.5,-159.6 152.5117,-151.8099 151.5915,-143.1679 151.2412,-135.1695"/>
<polygon fill="#000000" stroke="#000000" points="154.7405,-135.0889 151.0671,-125.1512 147.7415,-135.2106 154.7405,-135.0889"/>
<text text-anchor="middle" x="163.75" y="-147" font-family="Times,serif" font-size="14.00" fill="#000000">3.0</text>
</g>
<!-- Step3 -->
<g id="node4" class="node">
<title>Step3</title>
<ellipse fill="none" stroke="#000000" cx="236" cy="-106.8" rx="33.0643" ry="18"/>
<text text-anchor="middle" x="236" y="-102.6" font-family="Times,serif" font-size="14.00" fill="#000000">Step3</text>
</g>
<!-- Step0&#45;&gt;Step3 -->
<g id="edge3" class="edge">
<title>Step0-&gt;Step3</title>
<path fill="none" stroke="#000000" d="M177.8788,-177.4702C181.8604,-166.7797 187.8001,-153.3285 195.5,-142.8 199.2902,-137.6175 203.9381,-132.6395 208.7169,-128.1254"/>
<polygon fill="#000000" stroke="#000000" points="211.0784,-130.7092 216.2298,-121.451 206.4293,-125.476 211.0784,-130.7092"/>
<text text-anchor="middle" x="203.75" y="-147" font-family="Times,serif" font-size="14.00" fill="#000000">8.0</text>
</g>
<!-- Step1&#45;&gt;Z -->
<g id="edge4" class="edge">
<title>Step1-&gt;Z</title>
<path fill="none" stroke="#000000" d="M120.9392,-100.4004C91.7544,-93.7767 50.9492,-82.7404 39.8394,-70.8 33.6502,-64.1481 30.3007,-55.0279 28.5302,-46.2383"/>
<polygon fill="#000000" stroke="#000000" points="31.9809,-45.6439 27.1016,-36.2395 25.0513,-46.634 31.9809,-45.6439"/>
<text text-anchor="middle" x="110.5803" y="-58.2" font-family="Times,serif" font-size="14.00" fill="#000000">-0.001000000000000334</text>
</g>
<!-- Step2 -->
<g id="node5" class="node">
<title>Step2</title>
<ellipse fill="none" stroke="#000000" cx="227" cy="-18" rx="33.0643" ry="18"/>
<text text-anchor="middle" x="227" y="-13.8" font-family="Times,serif" font-size="14.00" fill="#000000">Step2</text>
</g>
<!-- Step1&#45;&gt;Step2 -->
<g id="edge5" class="edge">
<title>Step1-&gt;Step2</title>
<path fill="none" stroke="#000000" d="M167.36,-90.5297C173.003,-84.4263 179.3829,-77.3755 185,-70.8 192.6103,-61.8913 200.6859,-51.883 207.7012,-42.9946"/>
<polygon fill="#000000" stroke="#000000" points="210.64,-44.9187 214.0525,-34.8885 205.1299,-40.6014 210.64,-44.9187"/>
<text text-anchor="middle" x="206.75" y="-58.2" font-family="Times,serif" font-size="14.00" fill="#000000">5.0</text>
</g>
<!-- Step3&#45;&gt;Step0 -->
<g id="edge7" class="edge">
<title>Step3-&gt;Step0</title>
<path fill="none" stroke="#000000" d="M230.3388,-124.9513C226.4747,-135.6495 220.6634,-149.1012 213,-159.6 209.1884,-164.8219 204.495,-169.8182 199.6609,-174.3381"/>
<polygon fill="#000000" stroke="#000000" points="197.2629,-171.7858 192.0553,-181.0125 201.8801,-177.0472 197.2629,-171.7858"/>
<text text-anchor="middle" x="233.0803" y="-147" font-family="Times,serif" font-size="14.00" fill="#000000">-8.0</text>
</g>
<!-- Step2&#45;&gt;Step1 -->
<g id="edge6" class="edge">
<title>Step2-&gt;Step1</title>
<path fill="none" stroke="#000000" d="M228.5705,-36.1106C228.6141,-47.0557 226.9708,-60.7805 220,-70.8 215.6507,-77.0514 201.6856,-84.8759 187.5334,-91.6319"/>
<polygon fill="#000000" stroke="#000000" points="185.919,-88.5222 178.3056,-95.89 188.852,-94.8781 185.919,-88.5222"/>
<text text-anchor="middle" x="237.0803" y="-58.2" font-family="Times,serif" font-size="14.00" fill="#000000">-5.0</text>
</g>
</g>
</svg>